<svg xmlns="http://www.w3.org/2000/svg" viewBox="0 0 800 600" role="img" aria-labelledby="title desc">
  <title id="title">起源故事插画占位</title>
  <desc id="desc">后续替换为水东鸭粥孝亲故事插画或历史场景图</desc>
  <rect width="800" height="600" fill="#f4e4c1"/>
  <circle cx="640" cy="110" r="76" fill="#a33227" opacity=".14"/>
  <path d="M72 430c112-110 201-122 267-36 42 55 109 71 190 47 59-18 111-9 156 27" fill="none" stroke="#7a3f22" stroke-width="10" opacity=".18"/>
  <g fill="none" stroke="#4c2719" stroke-linecap="round" stroke-linejoin="round">
    <path d="M260 395v-96c0-48 39-87 87-87h106c48 0 87 39 87 87v96" stroke-width="10" opacity=".54"/>
    <path d="M318 286h164M336 342h128" stroke-width="8" opacity=".5"/>
    <path d="M238 398h324" stroke-width="12" opacity=".4"/>
  </g>
  <g fill="#a33227" opacity=".72">
    <rect x="180" y="128" width="70" height="70" rx="8" transform="rotate(-8 215 163)"/>
    <text x="215" y="176" text-anchor="middle" fill="#fff8e8" font-size="40" font-family="serif" font-weight="700">孝</text>
  </g>
  <text x="400" y="506" text-anchor="middle" fill="#4c2719" font-size="32" font-family="serif" font-weight="700">后续替换：孝亲故事插画</text>
</svg>
