<svg xmlns="http://www.w3.org/2000/svg" viewBox="0 0 800 600" role="img" aria-labelledby="title desc">
  <title id="title">水东鸭粥成品图占位</title>
  <desc id="desc">后续替换为水东鸭粥成品实拍图片</desc>
  <rect width="800" height="600" fill="#f7ead0"/>
  <path d="M0 0h800v600H0z" fill="url(#paper)"/>
  <g opacity=".28" fill="none" stroke="#9d3a2f" stroke-width="3">
    <path d="M96 88c48 40 96 40 144 0s96-40 144 0 96 40 144 0 96-40 144 0"/>
    <path d="M126 126c44 34 88 34 132 0s88-34 132 0 88 34 132 0 88-34 132 0"/>
  </g>
  <ellipse cx="400" cy="354" rx="230" ry="112" fill="#8c4b2d" opacity=".2"/>
  <ellipse cx="400" cy="320" rx="220" ry="108" fill="#fff8e8" stroke="#7a3f22" stroke-width="8"/>
  <ellipse cx="400" cy="316" rx="172" ry="72" fill="#f0d7a5"/>
  <path d="M276 310c40 36 86 49 137 41 43-7 77-28 111-57" fill="none" stroke="#c59b55" stroke-width="18" stroke-linecap="round" opacity=".75"/>
  <path d="M325 202c-12-36 28-44 14-84M399 195c-15-38 35-52 16-90M474 206c-12-35 32-47 14-82" fill="none" stroke="#a33227" stroke-width="8" stroke-linecap="round" opacity=".5"/>
  <text x="400" y="474" text-anchor="middle" fill="#4c2719" font-size="34" font-family="serif" font-weight="700">后续替换：水东鸭粥成品图</text>
  <defs>
    <pattern id="paper" width="36" height="36" patternUnits="userSpaceOnUse">
      <rect width="36" height="36" fill="#f7ead0"/>
      <circle cx="7" cy="8" r="1.5" fill="#d6bd88" opacity=".42"/>
      <circle cx="27" cy="24" r="1" fill="#9d7c52" opacity=".28"/>
    </pattern>
  </defs>
</svg>
